<?xml version="1.0" encoding="utf-8"?>
<?xml-stylesheet type="text/xsl" href="rss1.xsl"?>
<rss version="2.0" xmlns:atom="http://www.w3.org/2005/Atom" xmlns:content="http://purl.org/rss/1.0/modules/content/" xmlns:dc="http://purl.org/dc/elements/1.1/" xmlns:media="http://search.yahoo.com/mrss/">
<channel>
 <title>Getty</title>
 <link>http://www.gettyimg.com/</link>
 <atom:link href="http://www.gettyimg.com/" rel="self" type="application/rss+xml" />

 
                <item>
                <title><![CDATA[【HD Live Performances】WEB-RiP - Kaisermania 2023 - Live aus Dresden - mdrHD 720p IPTV]]></title>
                <link><![CDATA[https://sharemania.us/threads/kaisermania-2023-live-aus-dresden-mdrhd-720p-iptv.234794/]]></link>
                <description><![CDATA[<article>
<blockquote class="messageText SelectQuoteContainer ugc baseHtml">
<img src="https://i.imgur.com/hjneNzS.png" class="bbCodeImage LbImage" alt="[​IMG]" data-url="https://i.imgur.com/hjneNzS.png" style=""><br>
<br>
<div class="bbCodeBlock bbCodeCode">
<div class="type">Code:</div>
<pre>General
Complete name                            : Kaisermania 2023 - Live aus Dresden - mdrHD 720p IPTV.mkv
Format                                   : Matroska
Format version                           : Version 4
File size                                : 5.73 GiB
Duration                                 : 2 h 45 min
Overall bit rate                         : 4 952 kb/s
Encoded date                             : UTC 2023-12-28 02:33:38
Writing application                      : mkvmerge v55.0.0 ('Waiting For Space') 64-bit
Writing library                          : libebml v1.4.2 + libmatroska v1.6.4
Video
ID                                       : 1
Format                                   : AVC
Format/Info                              : Advanced Video Codec
Format profile                           : Main@L3.2
Format settings                          : CABAC / 2 Ref Frames
Format settings, CABAC                   : Yes
Format settings, Reference frames        : 2 frames
Codec ID                                 : V_MPEG4/ISO/AVC
Duration                                 : 2 h 45 min
Bit rate                                 : 4 821 kb/s
Width                                    : 1 280 pixels
Height                                   : 720 pixels
Display aspect ratio                     : 16:9
Frame rate mode                          : Constant
Frame rate                               : 50.000 FPS
Color space                              : YUV
Chroma subsampling                       : 4:2:0
Bit depth                                : 8 bits
Scan type                                : Progressive
Bits/(Pixel*Frame)                       : 0.105
Stream size                              : 5.58 GiB (97%)
Language                                 : German
Default                                  : Yes
Forced                                   : No
Audio
ID                                       : 2
Format                                   : AAC LC
Format/Info                              : Advanced Audio Codec Low Complexity
Codec ID                                 : A_AAC-2
Duration                                 : 2 h 45 min
Bit rate                                 : 126 kb/s
Channel(s)                               : 2 channels
Channel layout                           : L R
Sampling rate                            : 48.0 kHz
Frame rate                               : 46.875 FPS (1024 SPF)
Compression mode                         : Lossy
Stream size                              : 150 MiB (3%)
Language                                 : German
Default                                  : Yes
Forced                                   : No
Text
ID                                       : 3
Format                                   : UTF-8
Codec ID                                 : S_TEXT/UTF8
Codec ID/Info                            : UTF-8 Plain Text
Duration                                 : 2 h 44 min
Bit rate                                 : 41 b/s
Count of elements                        : 1314
Stream size                              : 49.8 KiB (0%)
Language                                 : German
Default                                  : No
Forced                                   : No
</pre>
</div>Pixeldrain:<br>
<div class="bbCodeBlock bbCodeVfcHH HiddenContent">
<div class="attribution type">Hidden Content:</div>
<blockquote>You must reply before you can see the hidden data contained here.</blockquote>
</div>
<div class="messageTextEndMarker">&nbsp;</div>
</blockquote>
</article>]]></description>
                <author><![CDATA[LLAVE1]]></author>
                </item>

                </channel></rss>